<svg width="20" height="20" viewBox="0 0 20 20" fill="none" xmlns="http://www.w3.org/2000/svg">
<path d="M12.9816 4.24482C12.9042 4.16722 12.8123 4.10565 12.711 4.06364C12.6098 4.02162 12.5012 4 12.3916 4C12.282 4 12.1735 4.02162 12.0722 4.06364C11.971 4.10565 11.879 4.16722 11.8016 4.24482L6.19496 9.85149C6.13316 9.91317 6.08413 9.98642 6.05067 10.0671C6.01722 10.1477 6 10.2342 6 10.3215C6 10.4088 6.01722 10.4953 6.05067 10.5759C6.08413 10.6566 6.13316 10.7298 6.19496 10.7915L11.8016 16.3982C12.1283 16.7248 12.655 16.7248 12.9816 16.3982C13.3083 16.0715 13.3083 15.5448 12.9816 15.2182L8.0883 10.3248L12.9883 5.42482C13.3083 5.09816 13.3083 4.57149 12.9816 4.24482Z" fill="#242426"/>
</svg>
