<svg width="32" height="32" viewBox="0 0 32 32" fill="none" xmlns="http://www.w3.org/2000/svg">
<path d="M8.31099 7.77863L8.90433 4.81063C9.0252 4.20588 9.35194 3.66173 9.82892 3.27081C10.3059 2.87989 10.9036 2.66638 11.5203 2.66663H20.4803C21.097 2.66638 21.6948 2.87989 22.1717 3.27081C22.6487 3.66173 22.9755 4.20588 23.0963 4.81063L23.6897 7.77863C23.7828 8.24368 24.006 8.67275 24.3334 9.01594C24.6608 9.35913 25.0788 9.60234 25.539 9.71729C26.623 9.98847 27.5852 10.6142 28.2728 11.495C28.9604 12.3758 29.3338 13.4612 29.3337 14.5786V24C29.3337 25.4144 28.7718 26.771 27.7716 27.7712C26.7714 28.7714 25.4148 29.3333 24.0003 29.3333H8.00033C6.58584 29.3333 5.22928 28.7714 4.22909 27.7712C3.2289 26.771 2.66699 25.4144 2.66699 24V14.5786C2.66689 13.4612 3.04029 12.3758 3.72785 11.495C4.41541 10.6142 5.37766 9.98847 6.46166 9.71729C6.92181 9.60234 7.33987 9.35913 7.66725 9.01594C7.99462 8.67275 8.21786 8.24368 8.31099 7.77863V7.77863Z" stroke="white" stroke-width="3" stroke-linecap="round" stroke-linejoin="round"/>
<path d="M16.0003 23.9999C18.9458 23.9999 21.3337 21.6121 21.3337 18.6666C21.3337 15.7211 18.9458 13.3333 16.0003 13.3333C13.0548 13.3333 10.667 15.7211 10.667 18.6666C10.667 21.6121 13.0548 23.9999 16.0003 23.9999Z" stroke="white" stroke-width="3" stroke-linecap="round" stroke-linejoin="round"/>
<path d="M14.667 8H17.3337" stroke="white" stroke-width="3" stroke-linecap="round" stroke-linejoin="round"/>
</svg>
