<svg width="18" height="18" viewBox="0 0 18 18" fill="none" xmlns="http://www.w3.org/2000/svg">
<g opacity="0.75">
<path d="M9 9C11.0711 9 12.75 7.32107 12.75 5.25C12.75 3.17893 11.0711 1.5 9 1.5C6.92893 1.5 5.25 3.17893 5.25 5.25C5.25 7.32107 6.92893 9 9 9Z" stroke="#242426" stroke-width="1.3"/>
<path d="M12.75 16.5H3.94955C3.73683 16.5 3.52654 16.4549 3.33263 16.3674C3.13872 16.28 2.96562 16.1523 2.82483 15.9928C2.68403 15.8334 2.57876 15.6458 2.516 15.4426C2.45324 15.2393 2.43442 15.0251 2.4608 14.814L2.7533 12.471C2.82132 11.9267 3.08586 11.4259 3.49717 11.063C3.90848 10.7 4.43823 10.4998 4.9868 10.5H5.25005" stroke="#242426" stroke-width="1.3" stroke-linecap="round" stroke-linejoin="round"/>
<path d="M14.25 9.75V14.25" stroke="#242426" stroke-width="1.3" stroke-linecap="round" stroke-linejoin="round"/>
<path d="M12 12H16.5" stroke="#242426" stroke-width="1.3" stroke-linecap="round" stroke-linejoin="round"/>
</g>
</svg>
