<svg width="16" height="16" viewBox="0 0 16 16" fill="none" xmlns="http://www.w3.org/2000/svg">
<path d="M9.15822 6.84197C8.54389 6.2279 7.71084 5.88293 6.84222 5.88293C5.97361 5.88293 5.14055 6.2279 4.52622 6.84197L2.20947 9.15797C1.59513 9.77231 1.25 10.6055 1.25 11.4743C1.25 12.3432 1.59513 13.1764 2.20947 13.7907C2.82381 14.4051 3.65704 14.7502 4.52585 14.7502C5.39466 14.7502 6.22788 14.4051 6.84222 13.7907L8.00022 12.6327" stroke="#242426" stroke-width="1.3" stroke-linecap="round" stroke-linejoin="round"/>
<path d="M6.8418 9.15798C7.45613 9.77205 8.28918 10.117 9.1578 10.117C10.0264 10.117 10.8595 9.77205 11.4738 9.15798L13.7905 6.84198C14.4049 6.22764 14.75 5.39441 14.75 4.5256C14.75 3.6568 14.4049 2.82357 13.7905 2.20923C13.1762 1.59489 12.343 1.24976 11.4742 1.24976C10.6054 1.24976 9.77214 1.59489 9.1578 2.20923L7.9998 3.36723" stroke="#242426" stroke-width="1.3" stroke-linecap="round" stroke-linejoin="round"/>
</svg>
