<svg width="20" height="20" viewBox="0 0 20 20" fill="none" xmlns="http://www.w3.org/2000/svg">
<g clip-path="url(#clip0)">
<path d="M8.32276 6.25504L7.58129 6.68111C5.88963 7.6524 5.21555 9.87168 6.1638 11.5409L7.26922 13.4556C7.49964 13.8547 7.67399 14.2733 7.64789 14.7309L7.63065 15.0359C7.60355 15.4988 8.10057 15.8114 8.49714 15.5824L15.5848 11.4903C15.9814 11.2614 15.9587 10.675 15.5448 10.4667L15.2721 10.3291C14.8632 10.1226 14.587 9.76209 14.3566 9.36299L13.2518 7.44937C12.2714 5.79798 10.0144 5.28375 8.32276 6.25504V6.25504Z" stroke="#524872" stroke-width="1.4" stroke-linecap="round" stroke-linejoin="round"/>
<path d="M13.5565 12.6613C13.7885 13.0632 13.8514 13.5409 13.7313 13.9892C13.6112 14.4375 13.3179 14.8197 12.9159 15.0518C12.514 15.2839 12.0363 15.3467 11.588 15.2266C11.1397 15.1065 10.7575 14.8132 10.5254 14.4113" stroke="#524872" stroke-width="1.4" stroke-linecap="round" stroke-linejoin="round"/>
<path d="M7.08263 4.94828C7.35059 4.79357 7.66904 4.75165 7.96792 4.83173C8.26679 4.91182 8.52161 5.10735 8.67632 5.37531L8.96799 5.88049L6.94727 7.04716L6.6556 6.54198C6.50089 6.27401 6.45896 5.95557 6.53905 5.65669C6.61913 5.35781 6.81466 5.10299 7.08263 4.94828Z" stroke="#524872" stroke-width="1.4" stroke-linecap="round" stroke-linejoin="round"/>
</g>
<defs>
<clipPath id="clip0">
<rect width="14" height="14" fill="white" transform="translate(0.4375 7.43787) rotate(-30)"/>
</clipPath>
</defs>
</svg>
